<svg width="222" height="25" viewBox="0 0 222 25" fill="none" xmlns="http://www.w3.org/2000/svg">
<path d="M109.943 8.33555V14.8739L97.5364 0.321869L82.5485 0.388929V24.9665L89.5562 24.9329C93.4793 24.8994 97.5029 21.8817 97.5029 17.9587V9.17381L109.909 24.8659H124.897V0.355399H117.286C112.994 0.355399 109.943 3.97665 109.943 8.33555Z" fill="white"/>
<path d="M145.484 0.321874C142.333 0.422464 138.208 0.288344 135.124 0.321874C130.798 0.355404 127.445 3.4737 127.043 7.32966V17.0534C127.043 19.1993 127.512 21.1105 129.122 22.6864C130.731 24.2623 132.709 24.9329 135.09 24.9329H145.686L146.658 16.3157H135.928L145.484 0.321874Z" fill="white"/>
<path d="M158.226 0.321869H147.63L146.658 8.9391H157.388L147.832 24.9329C150.983 24.8323 155.108 24.9665 158.192 24.9329C162.484 24.8994 165.871 21.8146 166.273 17.9252V8.20143C166.273 6.05551 165.804 4.1443 164.194 2.56838C162.585 0.99247 160.606 0.321869 158.226 0.321869Z" fill="white"/>
<path d="M70.4106 7.22907C80.1343 7.22907 81.0396 0.355408 81.0396 0.355408H40.1329V9.91148H27.7939V6.9273C27.7939 2.1325 25.3797 0.355408 20.719 0.355408H12.8395V9.64324V9.94501H0.936279C0.936279 9.94501 2.04277 15.3098 10.1235 15.3098H12.8395V24.9665L27.7939 25V15.3098H48.6831L40.0994 19.1322V24.8659C48.046 24.9329 60.821 25 68.7676 25C77.1166 24.5976 79.5643 18.1263 79.5643 18.1263H55.2885V15.3433L60.7539 15.3098C68.8011 15.3098 69.9412 9.94501 69.9412 9.94501H55.2885V7.2626H70.4106V7.22907Z" fill="white"/>
<path d="M211.237 9.91146V0.28833H196.484V9.87793H183.642V7.12846C183.642 1.12658 180.188 0.32186 175.527 0.32186L168.419 0.28833V24.8994H183.642V15.3098H205.671L196.484 19.0652V24.9329H203.927H205.134H211.237V15.2763H212.813C220.86 15.2763 222 9.91146 222 9.91146H211.237Z" fill="white"/>
</svg>
