<svg width="297" height="39" viewBox="0 0 297 39" fill="none" xmlns="http://www.w3.org/2000/svg">
<g clip-path="url(#clip0_11_39)">
<path d="M103.927 17.5363V23.7684L92.1473 9.89795L77.9156 9.96187V33.3883L84.5698 33.3563C88.2949 33.3244 92.1155 30.448 92.1155 26.7087V18.3353L103.896 33.2924H118.127V9.92991H110.9C106.825 9.92991 103.927 13.3815 103.927 17.5363Z" fill="#080A06"/>
<path d="M137.676 9.89834C134.683 9.99422 130.767 9.86638 127.838 9.89834C123.731 9.9303 120.547 12.9025 120.165 16.5779V25.8462C120.165 27.8916 120.611 29.7133 122.139 31.2154C123.667 32.7175 125.546 33.3567 127.806 33.3567H137.867L138.79 25.1431H128.602L137.676 9.89834Z" fill="#080A06"/>
<path d="M149.775 9.89795H139.714L138.79 18.1116H148.979L139.905 33.3563C142.897 33.2604 146.814 33.3883 149.743 33.3563C153.818 33.3244 157.034 30.3841 157.416 26.6768V17.4085C157.416 15.363 156.97 13.5413 155.442 12.0392C153.913 10.5371 152.035 9.89795 149.775 9.89795Z" fill="#080A06"/>
<path d="M66.3902 16.4819C75.6233 16.4819 76.4829 9.93018 76.4829 9.93018H37.6403V19.0387H25.9238V16.1943C25.9238 11.624 23.6315 9.93018 19.2059 9.93018H11.724V18.783V19.0706H0.421387C0.421387 19.0706 1.47205 24.1842 9.14506 24.1842H11.724V33.3885L25.9238 33.4205V24.1842H45.759L37.6084 27.8276V33.2927C45.1541 33.3566 57.2845 33.4205 64.8301 33.4205C72.7578 33.037 75.082 26.8688 75.082 26.8688H52.0312V24.2161L57.2208 24.1842C64.862 24.1842 65.9445 19.0706 65.9445 19.0706H52.0312V16.5139H66.3902V16.4819Z" fill="#080A06"/>
<path d="M200.111 19.0386V9.86621H186.102V19.0067H173.908V16.386C173.908 10.6652 170.629 9.89817 166.203 9.89817L159.453 9.86621V33.3246H173.908V24.1841H194.826L186.102 27.7636V33.3565H193.17H194.316H200.111V24.1522H201.607C209.248 24.1522 210.331 19.0386 210.331 19.0386H200.111Z" fill="#080A06"/>
<path d="M263.119 20.956H263.278L272.447 9.25879H264.424C260.699 9.25879 256.242 11.0485 254.459 13.2857L248.409 20.8601L242.36 13.2857C240.577 11.0485 236.12 9.25879 232.395 9.25879H224.371L233.732 20.956H233.7L224.244 32.7811H232.267C235.992 32.7811 240.45 30.9913 242.233 28.7542L248.377 21.0839H248.441L254.586 28.7542C256.369 30.9913 260.826 32.7811 264.551 32.7811H272.575L263.119 20.956Z" fill="#080A06"/>
<path d="M269.232 38.2783H283.368L296.421 0.27832C288.621 0.27832 280.088 6.63829 277.414 14.4684L269.232 38.2783Z" fill="#080A06"/>
</g>
<defs>
<clipPath id="clip0_11_39">
<rect width="296" height="38" fill="white" transform="translate(0.421387 0.27832)"/>
</clipPath>
</defs>
</svg>
