<svg width="296" height="38" viewBox="0 0 296 38" fill="none" xmlns="http://www.w3.org/2000/svg">
<g clip-path="url(#clip0_4_351)">
<path d="M103.506 17.2582V23.4904L91.7259 9.61987L77.4942 9.68379V33.1102L84.1484 33.0782C87.8735 33.0463 91.6941 30.1699 91.6941 26.4306V18.0572L103.474 33.0143H117.706V9.65183H110.479C106.403 9.65183 103.506 13.1035 103.506 17.2582Z" fill="#3DFFFF"/>
<path d="M137.255 9.61977C134.262 9.71565 130.346 9.58781 127.417 9.61977C123.309 9.65173 120.126 12.624 119.744 16.2993V25.5676C119.744 27.613 120.189 29.4347 121.718 30.9368C123.246 32.4389 125.124 33.0781 127.385 33.0781H137.446L138.369 24.8645H128.181L137.255 9.61977Z" fill="#3DFFFF"/>
<path d="M149.353 9.61987H139.292L138.369 17.8335H148.557L139.483 33.0782C142.476 32.9824 146.392 33.1102 149.321 33.0782C153.397 33.0463 156.612 30.106 156.994 26.3987V17.1304C156.994 15.085 156.549 13.2633 155.02 11.7612C153.492 10.2591 151.614 9.61987 149.353 9.61987Z" fill="#3DFFFF"/>
<path d="M65.9688 16.2036C75.2019 16.2036 76.0615 9.65186 76.0615 9.65186H37.2189V18.7604H25.5024V15.9159C25.5024 11.3457 23.2101 9.65186 18.7846 9.65186H11.3026V18.5047V18.7923H0C0 18.7923 1.05066 23.9059 8.72367 23.9059H11.3026V33.1102L25.5024 33.1422V23.9059H45.3376L37.187 27.5492V33.0143C44.7327 33.0783 56.8631 33.1422 64.4087 33.1422C72.3364 32.7587 74.6606 26.5905 74.6606 26.5905H51.6098V23.9378L56.7994 23.9059C64.4406 23.9059 65.5231 18.7923 65.5231 18.7923H51.6098V16.2355H65.9688V16.2036Z" fill="#3DFFFF"/>
<path d="M199.689 18.7603V9.58789H185.681V18.7283H173.487V16.1077C173.487 10.3869 170.207 9.61985 165.782 9.61985L159.032 9.58789V33.0463H173.487V23.9058H194.404L185.681 27.4853V33.0782H192.749H193.895H199.689V23.8738H201.186C208.827 23.8738 209.909 18.7603 209.909 18.7603H199.689Z" fill="#3DFFFF"/>
<path d="M262.697 20.6779H262.856L272.026 8.98071H264.003C260.278 8.98071 255.82 10.7705 254.037 13.0076L247.988 20.5821L241.939 13.0076C240.156 10.7705 235.698 8.98071 231.973 8.98071H223.95L233.311 20.6779H233.279L223.823 32.503H231.846C235.571 32.503 240.028 30.7133 241.811 28.4761L247.956 20.8058H248.02L254.165 28.4761C255.948 30.7133 260.405 32.503 264.13 32.503H272.153L262.697 20.6779Z" fill="#3DFFFF"/>
<path d="M268.81 38H282.946L296 0C288.2 0 279.667 6.35997 276.993 14.1901L268.81 38Z" fill="#3DFFFF"/>
</g>
<defs>
<clipPath id="clip0_4_351">
<rect width="296" height="38" fill="white"/>
</clipPath>
</defs>
</svg>
