<svg width="142" height="36" viewBox="0 0 142 36" fill="none" xmlns="http://www.w3.org/2000/svg">
<path d="M110.764 19.7328H110.913L119.513 8.80917H111.988C108.494 8.80917 104.313 10.4806 102.641 12.5698L96.9671 19.6433L91.2932 12.5698C89.6209 10.4806 85.4401 8.80917 81.9462 8.80917H74.4208L83.2004 19.7328H83.1705L74.3013 30.7759H81.8267C85.3207 30.7759 89.5014 29.1045 91.1737 27.0153L96.9372 19.8522H96.9969L102.76 27.0153C104.433 29.1045 108.614 30.7759 112.107 30.7759H119.633L110.764 19.7328Z" fill="#3DFFFF"/>
<path d="M116.497 35.9094H129.756L142 0.422424C134.684 0.422424 126.68 6.36178 124.172 13.6741L116.497 35.9094Z" fill="#3DFFFF"/>
<g clip-path="url(#clip0_4_377)">
<path d="M26.8182 0C22.2273 0.133588 16.2273 0 11.7273 0C5.45455 0.0445293 0.590909 4.45293 0 9.97455V23.8232C0 26.8957 0.727273 29.5674 3.04545 31.8384C5.36364 34.0649 8.22727 35.0445 11.7273 35.0445H27.0909L28.5 22.799H12.9091L26.8182 0Z" fill="#3DFFFF"/>
<path d="M45.3182 0H29.9091L28.5 12.2455H44.0909L30.2273 35C34.8182 34.8664 40.8182 35.0445 45.2727 35C51.5455 34.9555 56.4091 30.5471 57 25.0254V11.2214C57 8.14885 56.3182 5.43257 54 3.20611C51.6364 0.935114 48.7727 0 45.3182 0Z" fill="#3DFFFF"/>
</g>
<defs>
<clipPath id="clip0_4_377">
<rect width="57" height="35" fill="white"/>
</clipPath>
</defs>
</svg>
