<svg width="107" height="56" viewBox="0 0 107 56" fill="none" xmlns="http://www.w3.org/2000/svg">
<path d="M58.0275 30.2355H58.2613L71.7276 13.1317H59.9446C54.474 13.1317 47.9279 15.7487 45.3094 19.0199L36.4255 30.0954L27.5415 19.0199C24.923 15.7487 18.3769 13.1317 12.9063 13.1317H1.12332L14.8701 30.2355H14.8234L0.936279 47.5263H12.7193C18.1899 47.5263 24.736 44.9093 27.3544 41.6381L36.3787 30.4225H36.4722L45.4965 41.6381C48.1149 44.9093 54.661 47.5263 60.1316 47.5263H71.9146L58.0275 30.2355Z" fill="#3DFFFF"/>
<path d="M67.0052 55.5641H87.7657L106.936 0C95.4807 0 82.9496 9.29962 79.0219 20.7489L67.0052 55.5641Z" fill="#3DFFFF"/>
</svg>
